<svg width="100" height="100" viewBox="0 0 100 100" fill="none" xmlns="http://www.w3.org/2000/svg">
<g clip-path="url(#clip0_4_107)">
<path fill-rule="evenodd" clip-rule="evenodd" d="M64.4755 15.9847C62.2575 15.4111 61.7795 15.1626 59.3703 14.761C56.2537 14.2639 52.8502 14.3404 49.8101 14.8757C41.7795 16.2907 34.2843 21.4149 30.0778 28.5469C24.5519 37.8968 24.1122 43.6138 15.3741 50L11.2441 52.371C9.98215 52.9637 7.17144 54.0344 5.83301 54.283C-0.782668 55.545 -2.2167 64.6463 3.95921 67.8585L64.093 99.1396C65.0873 99.6559 66.1007 99.9235 66.9229 99.9618C68.0319 100.019 68.4525 99.9427 69.4277 99.7515C71.55 99.3308 73.0414 97.8012 74.1504 95.6788C76.0051 92.1033 73.6342 89.4073 73.1179 86.5583C72.9649 85.6788 72.7737 85.2582 72.6399 84.4169C72.5061 83.6138 72.3531 82.8872 72.3148 82.0842C72.0089 76.9599 72.5825 71.8547 75.3168 66.6731C78.1657 61.2429 81.7795 55.392 83.0988 49.9044C83.9018 46.5392 84.0548 43.4608 83.7106 40.1148C83.1753 35.1434 80.8617 29.2352 77.5921 25.2964C76.9994 24.5889 76.6361 24.0727 75.9669 23.3652C75.03 22.371 73.0797 20.5545 71.856 19.7897C72.7164 18.1453 74.1887 16.0039 74.3607 14.4169C74.5328 12.7534 73.6915 11.3385 72.4678 10.5354L71.6839 10.1148C70.3646 9.5985 68.7776 9.73234 67.4774 10.8796C66.2728 11.9503 65.3741 14.2639 64.4946 15.9465L64.4755 15.9847Z" fill="#006DAE"/>
<path fill-rule="evenodd" clip-rule="evenodd" d="M13.9783 23.9006C12.9458 25.87 12.181 26.673 12.8311 28.6998C13.8827 32.0077 18.0892 32.6195 20.0778 30.0382C20.747 29.1778 21.0911 28.0306 21.7412 27.1128C25.4124 21.9121 25.7183 20.8413 31.0529 16.2142C34.1695 13.5182 37.9171 11.2811 41.5883 9.69408C44.1887 8.56597 47.2288 8.1262 48.2231 6.21415C49.2365 4.28299 48.6628 1.66348 46.7508 0.66922C44.3799 -0.554489 43.7298 0.114727 41.2441 0.898666C39.7718 1.35756 38.3569 1.95029 36.9229 2.63863C30.441 5.71702 25.9477 9.12046 20.8617 14.3786C18.7584 16.5583 15.7183 20.5545 13.9783 23.8815V23.9006Z" fill="#006DAE"/>
<path fill-rule="evenodd" clip-rule="evenodd" d="M89.5997 27.1128C88.3187 29.5794 88.854 29.4455 89.4085 31.7591C91.7221 41.109 91.7603 49.0822 88.376 58.566C86.9802 62.4665 83.0988 66.6157 88.2995 69.3308C89.2556 69.8279 90.4601 69.7514 91.2058 69.4838C92.1619 69.1396 92.9267 68.4895 93.5959 67.4761L96.464 60.7457C99.1408 53.2122 100.116 44.2447 98.8923 36.501L97.4773 29.6367C96.7317 27.1128 96.5787 26.6157 94.3607 25.4685C93.6533 25.1052 92.3531 25.2773 91.7795 25.4493L90.6513 25.9273C90.2689 26.1759 89.8865 26.5392 89.5997 27.1128Z" fill="#006DAE"/>
<path fill-rule="evenodd" clip-rule="evenodd" d="M25.4888 97.5908L25.6227 97.6673L25.7565 97.7247C28.3951 99.1014 29.4659 99.6176 32.659 99.8471C34.2842 99.9618 37.1141 99.6176 38.4334 99.1205C40.7278 98.2792 44.399 96.2715 45.5844 94.1109L18.682 80.1147C17.7068 83.958 17.9554 86.1759 19.0644 89.7323C19.8101 92.1224 22.4296 96.0038 25.4888 97.5908Z" fill="#006DAE"/>
</g>
<defs>
<clipPath id="clip0_4_107">
<rect width="99.4099" height="100" fill="white"/>
</clipPath>
</defs>
</svg>
