<svg width="109" height="101" viewBox="0 0 109 101" fill="none" xmlns="http://www.w3.org/2000/svg">
<path fill-rule="evenodd" clip-rule="evenodd" d="M49.7016 69.7563C53.1214 69.7563 60.9457 69.4174 63.7388 70.345C71.402 72.914 71.5989 82.3516 67.0512 86.0088C64.9205 87.7215 63.1659 88.5065 59.3164 88.5065C55.8966 88.5065 48.0723 88.8455 45.2791 87.9178C37.616 85.3488 37.419 75.9112 41.9668 72.254C44.0974 70.5413 45.8521 69.7563 49.7016 69.7563ZM108.017 51.6306V57.1075C107.766 61.9423 106.817 66.777 105.116 71.4511C102.663 78.2126 99.4406 83.529 94.7854 89.0595C92.7085 91.5215 91.867 91.9497 90.2018 93.6445C88.5188 95.3393 80.8377 100.977 79.1726 100.977H29.8454C28.1623 100.977 20.4812 95.3215 18.7087 93.5375C17.1152 91.914 15.4321 90.6116 14.0356 88.8098C9.41617 82.8868 6.73048 79.4971 3.82993 71.2727C1.53814 64.761 0.983093 59.9441 0.983093 52.6653C0.983093 36.5376 9.61312 21.5696 21.9673 11.9359L27.7326 8.11803C29.9528 6.85137 31.9223 5.85231 34.3215 4.88893C44.8852 0.678617 56.4516 -0.195559 67.5525 2.56969C71.2408 3.49739 73.9086 4.60349 77.1136 5.95935C82.8788 8.42131 86.3523 11.4898 90.7032 15.1293C91.4193 15.7358 91.6879 15.9321 92.3683 16.5922C101.75 25.994 107.301 38.625 107.999 51.6127L108.017 51.6306ZM32.352 27.6889C33.0503 28.7236 35.3421 30.7752 36.3805 31.81C37.8487 33.2729 39.8898 34.8071 39.8898 36.4484C39.8898 38.1254 37.4727 41.4973 34.1962 38.1611L27.9833 32.0776C27.0701 33.4156 26.1212 34.5574 25.226 35.9846C23.722 38.3752 22.9342 40.1414 21.9494 42.7104C21.1437 44.8334 20.2485 48.6334 20.2485 51.0061H28.8248C33.7844 51.0061 33.7844 57.2503 28.8248 57.2503H17.5449C12.9792 57.2503 13.7849 53.3075 13.9998 50.3817C14.4832 43.6916 17.527 35.7884 21.5734 30.4363C27.5715 22.4973 34.9124 17.2701 44.7599 14.8081C57.9914 11.4898 72.4942 15.2006 82.0731 24.4062C82.664 24.9593 83.0221 25.0485 83.5413 25.6551L87.3371 30.2043C88.7337 32.0597 88.5188 31.9884 89.5752 33.594C92.4578 37.947 94.5169 44.7799 95.0719 50.2033C95.9492 58.7667 94.2483 57.2503 80.2648 57.2503C76.0751 57.2503 75.5021 52.8437 78.1699 51.4165C79.6918 50.6137 86.4956 51.0061 89.038 51.0061C88.8232 50.5423 88.6979 48.901 88.5546 48.1517C87.7668 43.6559 86.1733 39.9987 83.8636 36.163C83.2727 35.1818 81.6613 32.809 80.8735 32.2738C78.2774 34.0043 74.7681 39.5705 72.2972 39.5705C70.6321 39.5705 69.1639 38.1076 69.1639 36.4484C69.1639 34.0043 74.7322 30.5076 76.4869 27.9029C75.5559 26.5114 70.1666 23.4785 68.3045 22.7292C65.2428 21.4983 61.5902 20.3208 57.6691 19.9997C57.6691 24.5668 58.815 27.7781 59.7461 32.3095C60.9815 38.2682 62.396 44.5301 63.3986 50.5245C64.0611 54.4493 64.1506 58.3742 60.5697 61.2108C57.4901 63.6549 53.3183 64.2437 49.8448 62.1563C48.1976 61.1751 47.1949 60.1225 46.2639 58.4456C44.366 55.0381 45.673 50.1498 46.4429 46.2963C46.6757 45.101 51.4025 23.1574 51.4025 22.087V19.9997C46.5504 19.9997 40.3733 22.426 36.3089 24.9593C34.8765 25.8513 33.7307 26.7968 32.3878 27.7067L32.352 27.6889Z" fill="#006DAE"/>
<path fill-rule="evenodd" clip-rule="evenodd" d="M45.1001 78.7125C45.1001 80.7286 46.1207 82.2451 47.8216 82.2451H61.1964C64.8131 82.2451 64.8131 76.0007 61.1964 76.0007H47.8216C46.5325 76.0007 45.1001 77.428 45.1001 78.7125Z" fill="#006DAE"/>
<path fill-rule="evenodd" clip-rule="evenodd" d="M51.3667 54.1471C51.3667 58.3398 57.6333 58.3398 57.6333 54.1471C57.6333 50.9714 54.7149 39.6779 54.7149 37.6975H54.3031C54.3031 39.6601 51.3846 51.0071 51.3846 54.1471H51.3667Z" fill="#006DAE"/>
</svg>
