<svg width="101" height="100" viewBox="0 0 101 100" fill="none" xmlns="http://www.w3.org/2000/svg">
<path fill-rule="evenodd" clip-rule="evenodd" d="M47.5155 90.4141C47.5155 89.1718 47.3913 87.8882 48.0745 87.0186C49.4824 85.2588 52.5052 85.735 52.5052 89.1718C52.5052 90.7246 52.4845 93.3333 50 93.3333C48.5093 93.3333 47.4948 91.9876 47.4948 90.4141H47.5155ZM74.8033 77.2878C74.8033 75.8178 75.6729 74.7826 77.1014 74.7826C79.0062 74.7826 81.2629 77.5983 81.2629 78.53C81.2629 80.4762 80.4969 81.2422 78.5507 81.2422C77.4948 81.2422 76.9151 80.3313 76.3147 79.7309C75.6315 79.0476 74.8033 78.5507 74.8033 77.2878ZM21.47 81.2422C19.5238 81.2422 18.7578 80.4762 18.7578 78.53C18.7578 77.4327 21.2836 74.7826 22.7122 74.7826C24.1822 74.7826 25.2174 75.6522 25.2174 77.0807C25.2174 78.9855 22.4017 81.2422 21.47 81.2422ZM90.4348 52.4845C88.5714 52.4845 86.0663 52.6708 86.0663 49.7723C86.0663 46.6046 93.354 46.5631 93.354 49.9793C93.354 51.47 92.0083 52.4845 90.4348 52.4845ZM6.68737 49.9793C6.68737 46.7702 13.9752 46.2112 13.9752 50.1863C13.9752 53.3747 6.68737 53.354 6.68737 49.9793ZM47.5155 45.4037C47.5155 43.5197 47.1843 24.3064 47.8261 23.0021C48.675 21.3043 51.0973 21.1387 52.1325 22.8571C52.5673 23.6025 52.5259 24.6584 52.5259 25.7971V45.383C53.499 45.6315 54.3478 46.501 54.617 47.4741H69.8344C72.8779 47.5983 73.5611 50.3313 71.8841 51.8219C70.6418 52.9193 67.0186 52.4845 64.824 52.4845C61.4286 52.4845 58.0124 52.4845 54.617 52.4845C53.4162 56.9772 43.6232 56.0248 44.8033 49.1511C45.0932 47.5155 46.0663 45.7971 47.5362 45.4037H47.5155ZM77.1014 25.1967C75.8799 25.1967 74.8033 24.2029 74.8033 22.8985C74.8033 21.4079 75.4244 21.1387 76.2112 20.352C77.4948 19.089 77.3706 18.7371 79.1718 18.7371C80.6211 18.7371 81.2629 19.9793 81.2629 21.4493C81.2629 22.5259 80.2691 23.1677 79.648 23.7888C78.8613 24.5756 78.5921 25.1967 77.1014 25.1967ZM18.7578 21.4493C18.7578 19.5031 19.5238 18.7371 21.47 18.7371C22.4017 18.7371 25.2174 20.9938 25.2174 22.8985C25.2174 24.1201 24.1408 25.1967 22.9193 25.1967C21.0145 25.1967 18.7578 22.381 18.7578 21.4493ZM47.5155 10.8282C47.5155 9.27536 47.4948 6.66667 50.0207 6.66667C53.2298 6.66667 53.7888 13.9545 49.8137 13.9545C48.3437 13.9545 47.5155 12.5052 47.5155 10.8282ZM0.0207039 48.1159V51.8633C0.0207039 58.53 2.40166 66.6667 4.67909 71.1801C6.3147 74.4099 6.99793 75.7143 9.02692 78.7164C17.205 90.766 33.147 100 47.9503 100C54.1201 100 56.2526 100.041 62.4845 98.5093C67.2671 97.3292 71.0559 95.5694 75.176 93.2712C76.5631 92.5052 77.5776 91.8012 78.8613 90.911C86.3354 85.735 91.3044 79.2547 95.3002 71.3044C97.5362 66.853 100.021 58.6335 100.021 52.0704C100.021 46.4596 100.041 43.0849 98.5093 37.5362C96.8116 31.325 94.5135 26.3354 90.9317 21.1594C82.5259 8.98551 66.8944 0 51.8841 0C43.0435 0 36.0663 1.0352 28.8199 4.65838C23.0021 7.57764 19.3789 9.89648 14.6377 14.6377C6.10766 23.1677 0 35.7557 0 48.1366L0.0207039 48.1159Z" fill="#006DAE"/>
</svg>
