<svg width="85" height="100" viewBox="0 0 85 100" fill="none" xmlns="http://www.w3.org/2000/svg">
<g clip-path="url(#clip0_4_76)">
<path fill-rule="evenodd" clip-rule="evenodd" d="M0.613322 0.000915527H83.6785C84.0251 0.000915527 84.2918 0.267577 84.2918 0.614238V99.3591C84.2918 99.7057 84.0251 99.9724 83.6785 99.9724H0.613322C0.266662 99.9724 0 99.7057 0 99.3591V0.614238C0 0.267577 0.266662 0.000915527 0.613322 0.000915527ZM61.3055 69.9996H69.9454V78.8261H61.3055V69.9996ZM61.3055 80.9061H69.9454V89.7326H61.3055V80.9061ZM19.1196 67.7063H33.2527C34.2127 67.7063 34.986 68.4797 34.986 69.4396V88.4793C34.986 89.4393 34.2127 90.2126 33.2527 90.2126H19.1196C18.1597 90.2126 17.3863 89.4393 17.3863 88.4793V69.4396C17.3863 68.4797 18.1597 67.7063 19.1196 67.7063ZM40.5593 89.2526H56.1056L47.9991 80.6128L40.5326 89.2526H40.5593ZM40.5593 70.4796H56.1056L47.9991 79.1195L40.5326 70.4796H40.5593ZM38.026 87.6526V72.1063L46.6658 80.2128L38.026 87.6793V87.6526ZM58.2656 87.6526V72.1063L49.6258 80.2128L58.2656 87.6793V87.6526ZM64.8788 25.3338H73.732V33.947H64.8788V25.3338ZM64.8788 12.694H73.732V21.3072H64.8788V12.694ZM73.7586 46.6134H64.9055V38.0002H73.7586V46.6134ZM65.0388 50.64H73.652V59.4932H65.0388V50.64ZM12.6131 50.6666H21.2529V59.4932H12.6131V50.6666ZM12.6131 13.2807H61.0389V46.9067H12.6131V13.2807Z" fill="#006DAE"/>
</g>
<defs>
<clipPath id="clip0_4_76">
<rect width="84.3185" height="100" fill="white"/>
</clipPath>
</defs>
</svg>
