<svg width="107" height="100" viewBox="0 0 107 100" fill="none" xmlns="http://www.w3.org/2000/svg">
<g clip-path="url(#clip0_4_68)">
<path fill-rule="evenodd" clip-rule="evenodd" d="M37.5798 2.73713V30.2604C37.5798 31.4769 39.1001 32.9975 40.3163 32.9975H50.6544V46.6641H20.1913C18.4809 46.6641 17.2647 48.679 17.2647 50.5607V66.9645H6.92659C6.20444 66.9645 5.21625 67.5727 4.85517 68.0099C4.39908 68.5611 4 69.3594 4 70.2908V96.6546C4 98.2323 5.42529 99.981 6.92659 99.981H34.2541C35.7554 99.981 37.1807 98.2323 37.1807 96.6546V70.2908C37.1807 68.7132 35.7554 66.9645 34.2541 66.9645H24.1061V53.2979H83.455C83.9111 53.2979 84.0442 53.4309 84.0442 53.8871V66.3752C84.0442 67.3256 82.2008 66.9645 80.3384 66.9645C78.419 66.9645 73.6301 66.5653 72.2808 67.4967C71.4446 68.0859 70.7605 68.9223 70.7605 70.2718V96.6356C70.7605 98.2133 72.1858 99.962 73.6871 99.962H101.015C102.516 99.962 103.941 98.2133 103.941 96.6356V70.2718C103.941 66.2422 99.3422 66.9455 97.4989 66.9455C95.8835 66.9455 94.2302 66.9264 92.6149 66.9455C90.3154 66.9835 90.6575 67.3446 90.6575 63.8092L90.6195 49.0211C90.4294 48.0517 89.1562 46.6451 87.9209 46.6451H57.4768V32.9785H67.4348C69.1261 32.9785 70.5514 31.5529 70.5514 29.8612V2.9082C70.5514 1.53963 68.9931 -0.0190048 67.6248 -0.0190048H40.6774C39.1951 -0.0190048 37.5608 1.29253 37.5608 2.71812L37.5798 2.73713Z" fill="#006DAE"/>
</g>
<defs>
<clipPath id="clip0_4_68">
<rect width="99.9602" height="100.01" fill="white" transform="translate(4)"/>
</clipPath>
</defs>
</svg>
